<?xml version="1.0" encoding="UTF-8"?>
<svg viewBox="0 0 165 30" version="1.1" xmlns="http://www.w3.org/2000/svg" xmlns:xlink="http://www.w3.org/1999/xlink">
    <!-- Generator: Sketch 63.1 (92452) - https://sketch.com -->
    <title>Heartland Logo</title>
    <desc>Created with Sketch.</desc>
    <g id="Symbols" stroke="none" stroke-width="1" fill="none" fill-rule="evenodd">
        <g id="Heartland-Logo" fill="#DA1A32">
            <path d="M35.7029922,7.97036099 C38.6002318,7.97036099 42.0606484,9.08061762 43.9120286,12.8077263 C45.227258,15.4390186 45.2034218,18.2530077 45.1280831,19.9459716 L45.1188776,20.143663 L31.4780182,20.143663 L31.482703,20.6340943 C31.5229918,22.2512977 31.9097646,25.4967767 35.6227839,25.4967767 C37.0583391,25.4967767 38.4938943,24.9807236 39.099569,22.9528658 L39.1634089,22.7212763 L44.5955182,22.7212763 L44.5721737,22.974439 C44.4716887,23.957059 44.1764536,25.5200188 42.6642161,27.0829786 C41.1752057,28.6296595 38.519737,29.422337 35.5422891,29.422337 C33.8120807,29.422337 30.5123672,29.1053225 28.3799714,26.9246125 C26.5288776,25.0211138 25.7646068,22.3249376 25.7646068,19.1130128 C25.7646068,15.8612849 26.5689818,11.9749632 29.9892943,9.63588708 C31.558513,8.60467237 33.4901016,7.97036099 35.7029922,7.97036099 Z M56.1266406,8.04974166 C57.8167448,8.04974166 61.3573698,8.32723524 63.3697396,10.6270727 C64.628151,12.1229974 64.7627681,14.255916 64.776253,15.2980603 L64.8177865,23.5936168 C64.8177865,25.1092141 64.9135272,26.6248115 65.1891056,28.1124538 L65.3010417,28.6689547 L59.9093229,28.6689547 C59.7082292,27.4398529 59.7082292,26.5277656 59.7082292,25.9332575 C57.4546615,29.1451822 54.7588021,29.1451822 53.631875,29.1451822 C50.6945312,29.1451822 49.3667969,28.3121369 48.5621354,27.558698 C47.3547135,26.3691172 46.7918229,24.7433944 46.7918229,23.1577571 L46.7968822,22.8964335 C46.8598826,21.2657909 47.5516913,18.5471024 51.0972917,16.9317947 C53.5917708,15.8215381 57.1730729,15.8215381 59.1447656,15.8215381 C59.1447656,14.5128298 59.104375,13.8788007 58.8631771,13.1648828 C58.3398177,11.6975261 56.770599,11.4993567 56.2071354,11.4993567 C55.3620833,11.4993567 54.4766406,11.8561745 53.9538542,12.6096133 C53.5917448,13.1613926 53.5259067,13.6863378 53.5139362,14.119511 L53.511276,14.3939846 L47.6769792,14.3939846 L47.6941558,14.0292788 C47.7636173,12.8872623 48.0585318,11.0262052 49.9700781,9.6754645 C51.8211719,8.3667562 54.1953385,8.04974166 56.1266406,8.04974166 Z M111.763609,8.04974166 C113.453427,8.04974166 116.994339,8.32723524 119.006422,10.6270727 C120.264833,12.1229974 120.399693,14.255916 120.413217,15.2980603 L120.454755,23.5936168 C120.454755,25.1092141 120.55027,26.6248115 120.825798,28.1124538 L120.937724,28.6689547 L115.546005,28.6689547 C115.344625,27.4398529 115.344625,26.5277656 115.344625,25.9332575 C113.091344,29.1451822 110.395484,29.1451822 109.268844,29.1451822 C106.3315,29.1451822 105.003479,28.3121369 104.198818,27.558698 C102.991682,26.3691172 102.428505,24.7433944 102.428505,23.1577571 C102.428505,21.5712729 102.991682,18.6368417 106.733688,16.9317947 C109.228453,15.8215381 112.810042,15.8215381 114.781448,15.8215381 L114.778522,15.2997701 C114.76588,14.3300482 114.706846,13.7768124 114.499859,13.1648828 C113.9765,11.6975261 112.407568,11.4993567 111.843818,11.4993567 C110.999052,11.4993567 110.113609,11.8561745 109.590823,12.6096133 C109.228479,13.1613926 109.162598,13.6863378 109.15062,14.119511 L109.147958,14.3939846 L103.313948,14.3939846 L103.331116,14.0292788 C103.400533,12.8872623 103.695244,11.0262052 105.607047,9.6754645 C107.457854,8.3667562 109.832021,8.04974166 111.763609,8.04974166 Z M158.843667,0.0398032506 L164.83924,0.0398032506 L164.83924,25.4176219 C164.83924,26.5078122 164.906637,27.6985771 164.979871,28.4698069 L164.999943,28.6693499 L158.964266,28.6693499 L158.803276,25.7744397 L158.571342,26.1800558 C158.220273,26.7720043 157.764757,27.3901941 156.751375,28.0344739 C155.345358,28.9334816 153.867541,29.0541817 152.961764,29.0648181 L152.80799,29.0656886 C147.37588,29.0656886 144.156661,25.3778186 144.156661,19.1126176 C144.156661,12.4908811 147.818458,8.36686912 153.129682,8.36686912 C156.680793,8.36686912 158.225709,10.2682383 158.793288,11.0344359 L158.843667,11.1028486 L158.843667,0.0398032506 Z M87.6826901,2.69651497 L87.6826901,8.76326433 L92.5112318,8.76326433 L92.5112318,12.6493037 L87.6826901,12.6493037 L87.6826901,21.6902874 L87.6996587,22.305337 C87.7598386,23.769084 88.0355225,24.6642395 90.3788359,24.6642395 L90.9062258,24.6583458 C91.3008192,24.6485256 91.6015768,24.6264398 91.9465705,24.5921368 L92.3906328,24.5451121 L92.3906328,28.3916305 C90.4593307,28.9068144 88.7291224,29.0259418 87.7634714,29.0259418 C81.7678984,29.0259418 81.7678984,25.2985509 81.7678984,23.6333071 L81.7678984,4.83770402 L87.6826901,2.69651497 Z M6.23677083,0.00019760479 L6.23677083,11.459864 L17.221875,11.459864 L17.221875,0.00019760479 L23.5391406,0.00019760479 L23.5391406,28.6692652 L17.3023698,28.6692652 L17.3023698,16.0990599 L6.23677083,16.0990599 L6.23677083,28.6692652 L-1.42108547e-14,28.6692652 L-1.42108547e-14,0.00019760479 L6.23677083,0.00019760479 Z M100.451771,1.0658141e-14 L100.451771,28.6690676 L94.4965885,28.6690676 L94.4965885,1.0658141e-14 L100.451771,1.0658141e-14 Z M72.9644896,8.56492558 L73.0850885,12.411444 L73.1906264,12.1801697 C73.9563741,10.5357783 75.3266613,8.39999127 79.6891915,8.51343899 L80.0059219,8.52540462 L80.0059219,13.7991942 C74.1783716,13.2633445 73.640146,16.0909398 73.6099563,18.5349843 L73.6084479,28.6689547 L67.6529792,28.6689547 L67.6529792,13.5612216 C67.6529792,12.7153476 67.5257775,10.3342482 67.41281,9.00783408 L67.3713906,8.56492558 L72.9644896,8.56492558 Z M135.265396,8.08926262 C139.249172,8.08926262 140.939276,10.4684243 141.462349,11.8561745 L141.544043,12.0924191 C141.907023,13.1905843 142.017926,14.2792033 142.025143,17.4912313 L142.025526,28.6689547 L135.949745,28.6689547 L135.949303,15.9448542 C135.94577,15.2275632 135.913969,14.6012501 135.627766,14.0371668 C135.184901,13.1648828 134.259354,12.3321198 132.73024,12.3321198 C131.442896,12.3321198 130.276151,12.9266279 129.632193,13.8788007 C129.292471,14.3617856 128.953253,15.2630818 128.912178,16.648283 L128.908026,16.9317947 L128.908026,28.6689547 L122.912453,28.6689547 L122.911106,11.877378 C122.907051,11.2890509 122.890789,10.0419933 122.825567,9.01831772 L122.791854,8.56492558 L128.505552,8.56492558 L128.666542,11.5786809 L128.868658,11.2594086 C129.579805,10.1771294 131.281935,8.08926262 135.265396,8.08926262 Z M59.1447656,19.2316322 C55.3219792,18.9146176 52.5857292,20.1039162 52.5857292,22.4833601 C52.5857292,23.8313071 53.511276,25.3381848 55.4832552,25.3381848 C56.5695052,25.3381848 57.4546615,24.8224363 58.018125,24.1884072 C59.0642708,22.9195021 59.1447656,21.3728212 59.1447656,19.2316322 Z M114.781448,19.2316322 C110.958661,18.9146176 108.222411,20.1039162 108.222411,22.4833601 C108.222411,23.8313071 109.147958,25.3381848 111.119938,25.3381848 C112.206474,25.3381848 113.091344,24.8224363 113.654807,24.1884072 C114.70124,22.9195021 114.781448,21.3728212 114.781448,19.2316322 Z M154.618693,12.2131052 C150.634917,12.2131052 150.192625,16.9316253 150.192625,18.9539692 C150.192625,22.2847391 151.318979,25.2589735 154.297,25.2589735 C156.027208,25.2589735 157.435151,24.2277588 158.079109,22.998657 C158.964266,21.3331309 159.04476,19.2715483 159.04476,18.2798546 C159.04476,14.3545766 157.314552,12.2131052 154.618693,12.2131052 Z M35.5018984,11.9749632 C32.9634563,11.9749632 31.8655037,13.9923181 31.6923225,16.2502001 L31.679112,16.4560753 L39.0430964,16.4560753 L39.0383506,16.1376417 C38.9988705,14.9110996 38.6406757,11.9749632 35.5018984,11.9749632 Z"></path>
        </g>
    </g>
</svg>